<?xml version="1.0" encoding="UTF-8"?>
<svg xmlns="http://www.w3.org/2000/svg" xmlns:xlink="http://www.w3.org/1999/xlink" width="150px" height="150px" viewBox="0 0 150 150" version="1.1">
<g id="surface1">
<path style=" stroke:none;fill-rule:nonzero;fill:rgb(0%,0%,0%);fill-opacity:1;" d="M 11.25 75 L 11.25 138.75 L 138.75 138.75 L 138.75 11.25 L 11.25 11.25 Z M 85.011719 29.550781 C 87.1875 30.636719 88.050781 32.949219 87.074219 35.085938 C 86.886719 35.488281 86.414062 36.125 85.914062 36.636719 L 85.074219 37.511719 L 98.789062 51.210938 L 112.488281 64.925781 L 113.363281 64.085938 C 114.550781 62.9375 115.363281 62.5625 116.6875 62.5625 C 117.511719 62.5625 117.8125 62.625 118.375 62.886719 C 120.523438 63.914062 121.398438 66.5 120.3125 68.625 C 119.914062 69.375 94.289062 94.988281 93.5625 95.351562 C 91.425781 96.398438 88.949219 95.539062 87.914062 93.375 C 87.636719 92.8125 87.574219 92.5 87.574219 91.6875 C 87.5625 90.375 87.925781 89.5625 89.085938 88.363281 L 89.925781 87.488281 L 85.4375 83 L 69.9375 98.476562 C 61.414062 107 54.050781 114.25 53.5625 114.613281 C 52.710938 115.238281 51.125 116.085938 50.074219 116.449219 C 48.273438 117.101562 45.300781 117.3125 43.476562 116.9375 C 40.710938 116.363281 38.613281 115.238281 36.675781 113.3125 C 33.0625 109.726562 31.9375 104.625 33.664062 99.6875 C 33.824219 99.199219 34.101562 98.550781 34.25 98.25 C 35.164062 96.449219 35.511719 96.085938 51.386719 80.1875 L 67 64.5625 L 62.511719 60.074219 L 61.613281 60.925781 C 61.113281 61.414062 60.414062 61.914062 60.039062 62.085938 C 57.550781 63.226562 54.6875 61.675781 54.25 58.976562 C 54.125 58.1875 54.261719 57.210938 54.601562 56.476562 C 54.789062 56.074219 58.175781 52.613281 67.761719 43.039062 C 74.875 35.9375 80.824219 30.039062 80.988281 29.914062 C 81.164062 29.800781 81.613281 29.574219 81.988281 29.414062 C 82.925781 29.011719 84.039062 29.0625 85.011719 29.550781 Z M 85.011719 29.550781 "/>
<path style=" stroke:none;fill-rule:nonzero;fill:rgb(0%,0%,0%);fill-opacity:1;" d="M 73.773438 48.789062 L 68.375 54.1875 L 95.8125 81.625 L 106.625 70.8125 L 79.1875 43.375 Z M 73.773438 48.789062 "/>
<path style=" stroke:none;fill-rule:nonzero;fill:rgb(0%,0%,0%);fill-opacity:1;" d="M 57.425781 86.039062 C 45.335938 98.125 41.851562 101.6875 41.636719 102.136719 C 40.351562 104.886719 41.9375 108.085938 44.886719 108.699219 C 45.949219 108.925781 46.988281 108.789062 47.9375 108.300781 C 48.449219 108.050781 51.800781 104.761719 64.039062 92.523438 L 79.5 77.0625 L 72.9375 70.5 Z M 57.425781 86.039062 "/>
</g>
</svg>
